<?xml version="1.0" encoding="UTF-8" standalone="no"?>
<!-- Created with Inkscape (http://www.inkscape.org/) -->

<svg
   xmlns:dc="http://purl.org/dc/elements/1.1/"
   xmlns:cc="http://creativecommons.org/ns#"
   xmlns:rdf="http://www.w3.org/1999/02/22-rdf-syntax-ns#"
   xmlns:svg="http://www.w3.org/2000/svg"
   xmlns="http://www.w3.org/2000/svg"
   xmlns:xlink="http://www.w3.org/1999/xlink"
   xmlns:sodipodi="http://sodipodi.sourceforge.net/DTD/sodipodi-0.dtd"
   xmlns:inkscape="http://www.inkscape.org/namespaces/inkscape"
   width="672.71466mm"
   height="197.50949mm"
   viewBox="0 0 672.71467 197.50949"
   version="1.1"
   id="svg4512"
   inkscape:version="0.92.1 r15371"
   sodipodi:docname="drawing.svg">
  <defs
     id="defs4506">
    <linearGradient
       inkscape:collect="always"
       id="linearGradient5685">
      <stop
         style="stop-color:#d60000;stop-opacity:1"
         offset="0"
         id="stop5681" />
      <stop
         id="stop5689"
         offset="0.36884108"
         style="stop-color:#e28500;stop-opacity:0.79607844" />
      <stop
         style="stop-color:#e18000;stop-opacity:0.80392158"
         offset="0.36884108"
         id="stop5691" />
      <stop
         id="stop5693"
         offset="0.65421134"
         style="stop-color:#e1b500;stop-opacity:0.82" />
      <stop
         style="stop-color:#001c9a;stop-opacity:0.49"
         offset="0.85771263"
         id="stop5695" />
      <stop
         id="stop5697"
         offset="1"
         style="stop-color:#0a00f5;stop-opacity:0.416" />
      <stop
         style="stop-color:#000000;stop-opacity:0.055"
         offset="1"
         id="stop5683" />
    </linearGradient>
    <linearGradient
       inkscape:collect="always"
       xlink:href="#linearGradient5685"
       id="linearGradient5687"
       x1="-230.92087"
       y1="134.50012"
       x2="441.52927"
       y2="135.03467"
       gradientUnits="userSpaceOnUse"
       gradientTransform="translate(238.33288,51.038262)" />
  </defs>
  <sodipodi:namedview
     id="base"
     pagecolor="#ffffff"
     bordercolor="#666666"
     borderopacity="1.0"
     inkscape:pageopacity="0.0"
     inkscape:pageshadow="2"
     inkscape:zoom="0.7"
     inkscape:cx="1393.1129"
     inkscape:cy="416.71776"
     inkscape:document-units="mm"
     inkscape:current-layer="layer1"
     showgrid="false"
     fit-margin-top="0"
     fit-margin-left="0"
     fit-margin-right="0"
     fit-margin-bottom="0"
     inkscape:window-width="2067"
     inkscape:window-height="1406"
     inkscape:window-x="-11"
     inkscape:window-y="-11"
     inkscape:window-maximized="1" />
  <metadata
     id="metadata4509">
    <rdf:RDF>
      <cc:Work
         rdf:about="">
        <dc:format>image/svg+xml</dc:format>
        <dc:type
           rdf:resource="http://purl.org/dc/dcmitype/StillImage" />
        <dc:title></dc:title>
      </cc:Work>
    </rdf:RDF>
  </metadata>
  <g
     inkscape:label="Layer 1"
     inkscape:groupmode="layer"
     id="layer1"
     transform="translate(-6.9755513,-96.672617)">
    <rect
       style="fill:url(#linearGradient5687);fill-opacity:1;stroke:#a02c2c;stroke-width:0.26458332;stroke-opacity:1"
       id="rect5679"
       width="672.45007"
       height="197.2449"
       x="7.1078429"
       y="96.804909" />
    <g
       id="g5675"
       transform="translate(217.40214,52.021676)">
      <path
         inkscape:connector-curvature="0"
         id="path5672"
         d="m 7.0271235,143.08809 c -0.00117,-45.111454 0.058606,-73.626923 0.132842,-63.367704 0.074236,10.259219 0.2188208,18.449232 0.3213,18.200026 0.1024793,-0.249203 0.8953995,-0.811038 1.7620448,-1.248518 2.2110387,-1.116129 2.7907617,-2.022949 2.9066777,-4.546712 l 0.09255,-2.014995 -1.878485,-1.878486 C 8.1682335,86.035884 8.0060799,85.404703 9.3704347,84.364059 c 0.4866786,-0.371208 1.2078613,-0.674923 1.6026293,-0.674923 2.561491,0 4.750275,-1.514749 5.540667,-3.834422 0.422391,-1.239647 0.41733,-1.295266 -0.262246,-2.881997 -0.751121,-1.753782 -1.041774,-3.527844 -0.669182,-4.084486 0.406669,-0.607551 2.105568,-0.83804 3.103546,-0.421058 1.441431,0.602268 3.723633,0.482645 4.990012,-0.261554 1.715925,-1.008379 2.271102,-1.962968 2.278516,-3.917748 0.007,-1.838095 0.333992,-3.565706 0.754567,-3.986281 0.596896,-0.596896 1.820564,-0.219146 3.563464,1.10005 1.891444,1.431629 2.972021,1.774974 4.748021,1.508646 1.834718,-0.275133 2.715643,-0.991228 3.752691,-3.050528 0.984917,-1.955786 1.900105,-2.808883 2.730558,-2.545308 0.757854,0.240534 1.50246,1.200161 2.018689,2.601634 0.726596,1.972575 2.657962,3.099141 5.319429,3.102826 1.150716,0.0016 1.760961,-0.32982 3.492545,-1.896741 0.830321,-0.751363 1.348158,-1.0122 2.009513,-1.0122 1.382506,0 1.861971,0.730432 1.945662,2.964077 0.08473,2.26153 0.39466,3.286213 1.284073,4.245405 1.521999,1.641407 3.324579,2.050913 5.621597,1.277104 2.088287,-0.703493 2.743528,-0.691484 3.452592,0.06328 0.744805,0.79281 0.72706,1.546438 -0.06514,2.766746 -1.104466,1.701317 -1.362464,3.02883 -0.849619,4.371695 0.486309,1.27338 1.799603,2.762128 2.758056,3.126532 0.340188,0.129339 1.039265,0.235162 1.553501,0.235162 1.100519,0 2.628488,0.664392 2.848891,1.238755 0.321413,0.837592 -0.430401,2.454916 -1.414383,3.042661 -2.235621,1.335363 -2.908665,2.575399 -2.407672,4.435946 0.22877,0.849591 0.667327,1.389701 2.063496,2.541326 2.169221,1.789274 2.524715,2.403255 2.291588,3.957846 -0.213111,1.42113 -0.428667,1.61008 -2.032423,1.781556 -1.629098,0.17418 -2.51066,0.77673 -3.129031,2.13868 -0.928042,2.044 -0.644189,3.48277 1.186833,6.01571 0.940462,1.30099 0.768109,2.14965 -0.627576,3.09021 -0.811958,0.54717 -1.099886,0.59246 -2.791909,0.43913 -2.278179,-0.20644 -3.074424,0.12316 -4.499788,1.86262 l -0.970123,1.18391 0.18901,2.91623 c 0.238117,3.67395 -0.01903,4.24917 -1.899595,4.24917 -0.972309,0 -1.467567,-0.18524 -2.477632,-0.9267 -1.493597,-1.0964 -2.529991,-1.35626 -3.772977,-0.94604 -1.327436,0.43809 -1.924735,1.23407 -2.571739,3.42718 -0.679035,2.30166 -1.447139,3.20806 -2.718591,3.20806 -0.982898,0 -2.177154,-1.04281 -2.949202,-2.57521 -0.602139,-1.19515 -1.710124,-1.70104 -3.514834,-1.60483 l -1.481881,0.079 L 38.7,124.03809 c -0.365771,0.72761 -0.79498,1.60901 -0.953799,1.95867 -0.545079,1.20009 -1.513766,1.68015 -2.954338,1.46413 -1.743951,-0.26152 -2.656785,-1.18522 -2.882453,-2.91676 -0.277316,-2.12782 -0.383697,-2.44951 -1.003608,-3.03486 -0.925619,-0.874 -3.405663,-0.63532 -5.238731,0.50417 -1.708951,1.06235 -2.480774,1.23028 -3.899092,0.84837 -1.587973,-0.4276 -1.753455,-0.92052 -1.103897,-3.28818 0.752604,-2.74327 0.39571,-3.96327 -1.541587,-5.26973 -0.816845,-0.55086 -1.383538,-0.68162 -3.410214,-0.78686 -4.195457,-0.21786 -5.229033,-1.39382 -3.40684,-3.87614 2.277488,-3.10256 2.298672,-5.12716 0.07408,-7.08037 -0.492567,-0.43248 -1.462426,-0.94504 -2.155242,-1.13901 -0.6928167,-0.19398 -1.6648622,-0.73484 -2.1601014,-1.20191 l -0.900435,-0.849217 -0.067243,62.869267 c -0.049303,46.0959 -0.067812,40.98631 -0.069375,-19.15157 z M 46.275192,117.66871 c 3.694034,-0.93096 6.650858,-2.50616 6.320478,-3.36712 -0.325665,-0.84867 -9.019426,-12.6551 -9.513326,-12.91943 -0.325713,-0.17431 -1.142257,-0.23471 -1.990138,-0.1472 -0.790795,0.0816 -1.745655,0.0314 -2.121916,-0.11171 -1.37251,-0.52182 -1.957604,0.0508 -6.702024,6.55921 -3.732947,5.12087 -4.490254,6.30954 -4.357301,6.83927 0.121515,0.48416 0.694569,0.89749 2.340156,1.68791 5.019492,2.41101 10.328587,2.89442 16.024071,1.45907 z m 11.352036,-6.82142 c 3.431399,-3.61237 5.761169,-8.40432 6.432417,-13.230408 0.308663,-2.219206 -0.01548,-7.390027 -0.522668,-8.337714 -0.172696,-0.322688 -0.559946,-0.562949 -0.907357,-0.562949 -0.603806,0 -13.819857,4.280149 -14.745208,4.77538 -0.267544,0.143187 -0.621353,0.764411 -0.786246,1.380501 -0.164891,0.616087 -0.526275,1.787228 -0.803077,2.602534 -0.276802,0.815306 -0.503274,1.727729 -0.503274,2.027611 0,0.299878 0.736142,1.537815 1.635868,2.750955 0.899729,1.21315 2.878659,3.93213 4.397621,6.04219 2.599595,3.61119 3.343407,4.49791 3.773027,4.49791 0.09921,0 1.012211,-0.8757 2.028897,-1.94601 z m -32.106203,1.27692 c 0.386909,-0.38691 5.650074,-7.58794 8.056488,-11.02283 1.266502,-1.807802 1.272699,-1.900448 0.305781,-4.570393 -0.693705,-1.915522 -1.395051,-2.942799 -2.333693,-3.41821 C 31.160892,92.9159 27.942505,91.837673 24.39763,90.716718 l -6.445226,-2.038101 -0.613215,0.576085 c -0.83352,0.783053 -1.299844,3.608575 -1.063998,6.44692 0.496814,5.979038 2.666115,10.968838 6.594356,15.168278 1.630558,1.74313 1.991778,1.91401 2.651478,1.25431 z m 16.57075,-14.375936 c 1.222587,-0.653711 1.935377,-1.914115 1.913171,-3.382997 -0.03146,-2.081101 -1.578875,-3.530412 -3.769381,-3.530412 -1.622714,0 -2.815223,0.773883 -3.468606,2.250969 -0.430289,0.972738 -0.474586,1.357294 -0.251698,2.185043 0.259715,0.964507 1.567807,2.483919 2.397387,2.784679 0.84205,0.305284 2.296398,0.164714 3.179127,-0.307282 z m -6.685618,-8.051972 c 0.546121,-0.479599 1.326054,-1.081381 1.733185,-1.337294 0.40713,-0.25591 0.972232,-0.845775 1.255781,-1.310809 0.478155,-0.784196 0.51562,-1.376686 0.516535,-8.16881 0.0013,-9.032951 0.242129,-8.516914 -3.608731,-7.730074 -6.079042,1.242121 -10.985991,4.482579 -14.646691,9.672404 -1.744425,2.473097 -2.433904,3.816558 -2.330682,4.541376 0.07152,0.502186 0.952993,0.864943 6.961052,2.864693 3.951593,1.315267 7.357388,2.300507 8.002884,2.315104 0.913926,0.02066 1.309095,-0.137385 2.116667,-0.84659 z m 17.162655,-0.731075 c 9.069245,-2.90951 9.091668,-2.917796 9.386076,-3.467897 0.378629,-0.707477 -0.627216,-2.759816 -2.702095,-5.513387 -3.215933,-4.267868 -7.274761,-6.989501 -12.820099,-8.596477 -2.821419,-0.817615 -4.219059,-0.863534 -4.600321,-0.151141 -0.358746,0.670327 -0.369253,14.813379 -0.01169,15.753811 0.144206,0.379288 0.63546,0.893056 1.091676,1.141703 0.456219,0.248648 1.160751,0.721374 1.565627,1.050502 0.949754,0.772062 2.125292,1.382265 2.666878,1.384332 0.234847,7.94e-4 2.675628,-0.719754 5.423959,-1.601446 z M 11.232975,220.5174 C 9.8573133,219.87287 8.7442714,218.42907 8.5591705,217.04904 L 8.4158897,215.9808 h 1.6223373 c 1.182603,0 1.622338,0.0965 1.622338,0.35587 0,0.56473 0.903392,1.23163 1.66838,1.23163 0.458431,0 0.852965,-0.23243 1.141177,-0.67229 0.7017,-1.07094 0.202384,-1.74451 -1.919563,-2.58947 -2.8988833,-1.15436 -4.0649944,-2.42506 -4.0649944,-4.42961 0,-2.24373 0.8461192,-3.61687 2.7781254,-4.50855 1.351967,-0.62398 2.621761,-0.61951 4.017396,0.0141 1.304831,0.59242 2.497249,2.22773 2.556596,3.50618 l 0.04059,0.87441 -1.473519,0.0779 c -1.360983,0.072 -1.497215,0.0259 -1.783787,-0.60305 -0.605299,-1.32848 -2.140873,-1.32768 -2.746461,0.001 -0.446486,0.97993 0.251725,1.78835 2.138787,2.47641 3.595554,1.31101 4.836437,3.68734 3.436051,6.58015 -1.089122,2.24982 -3.963447,3.27696 -6.216369,2.22142 z m 61.701438,0.16202 c -1.421474,-0.3758 -3.714715,-2.63561 -4.096893,-4.03716 -0.16265,-0.59648 -0.289232,-3.33872 -0.290062,-6.28385 l -0.0015,-5.22552 h 1.5875 1.5875 v 4.92095 c 0,4.00647 0.08038,5.09034 0.432552,5.83249 1.054385,2.22194 4.39906,2.26324 5.534096,0.0683 0.295389,-0.57122 0.383352,-1.89786 0.383352,-5.78154 v -5.04022 h 1.5875 1.5875 v 5.5043 c 0,5.36904 -0.01656,5.53755 -0.674391,6.85762 -1.378191,2.76567 -4.421611,4.03474 -7.637177,3.18461 z m 33.430787,-0.0163 c -1.43416,-0.40622 -2.46987,-1.10578 -3.77357,-2.54882 -1.4376,-1.59126 -1.84919,-2.7352 -1.86238,-5.17622 -0.0138,-2.55116 0.68352,-4.14963 2.5679,-5.88659 1.68079,-1.5493 2.83775,-1.99688 5.20091,-2.01206 2.13355,-0.0137 4.02894,0.61895 5.22734,1.74479 l 0.60372,0.56716 -1.10537,1.12629 -1.10536,1.12629 -1.1058,-0.64805 c -4.04336,-2.36956 -8.62893,2.0253 -6.48927,6.21939 1.19412,2.34066 4.23222,3.1712 6.61142,1.8074 l 1.0555,-0.60504 1.12165,1.11955 c 1.09066,1.08861 1.10727,1.13082 0.60131,1.52773 -2.09628,1.64444 -5.17037,2.31163 -7.548,1.63818 z m 27.91612,-3.90198 -4.4843,-4.24673 -0.0729,4.11444 -0.0729,4.11444 h -1.71307 -1.71307 v -7.95955 c 0,-4.73189 0.0987,-7.92378 0.24339,-7.87135 0.13387,0.0485 2.24723,1.99319 4.69635,4.32153 l 4.45297,4.23333 0.0729,-4.16719 0.0729,-4.16718 h 1.58078 1.58078 v 7.9375 c 0,4.36562 -0.0359,7.9375 -0.0798,7.9375 -0.0439,0 -2.09771,-1.91103 -4.56406,-4.24674 z m 77.35539,3.65142 c -0.18263,-0.32742 -0.57377,-1.18723 -0.8692,-1.9107 -0.60685,-1.48605 -1.3249,-1.97746 -2.9184,-1.99723 -0.58209,-0.007 -2.00978,-0.18263 -3.17267,-0.3898 -1.16288,-0.20717 -2.37851,-0.31037 -2.70141,-0.22932 -0.35129,0.0882 -0.89803,0.69831 -1.36126,1.51911 -0.91819,1.62694 -1.40805,2.08363 -1.99383,1.85884 -0.58328,-0.22382 -0.79214,-1.19492 -0.588,-2.73386 0.093,-0.70131 0.0925,-1.47497 -0.001,-1.71925 -0.0937,-0.24428 -0.95903,-0.84332 -1.92287,-1.33119 -0.96384,-0.48788 -2.4598,-1.31522 -3.32437,-1.83854 -0.86456,-0.52332 -1.76154,-0.95149 -1.99329,-0.95149 -0.23175,0 -1.06818,0.41671 -1.85873,0.92604 -1.71629,1.10574 -2.04842,1.13999 -2.38822,0.24626 -0.20862,-0.54873 -0.13085,-0.8975 0.40343,-1.80918 1.0216,-1.74323 0.89011,-2.60195 -0.77398,-5.05457 -2.25183,-3.31893 -2.42581,-3.43668 -5.07767,-3.43668 -1.6655,0 -2.29698,-0.0977 -2.47324,-0.38262 -0.30377,-0.49105 0.0946,-1.25043 0.76814,-1.4642 0.69642,-0.22104 2.08638,-1.84307 2.29638,-2.6798 0.0939,-0.37425 -0.0223,-1.35433 -0.25823,-2.17796 -0.23596,-0.82363 -0.55004,-2.20845 -0.69796,-3.07739 -0.14793,-0.86894 -0.4267,-1.73764 -0.61951,-1.93044 -0.1928,-0.19281 -0.9859,-0.51816 -1.76244,-0.72301 -0.77653,-0.20484 -1.59226,-0.55283 -1.81273,-0.7733 -0.35808,-0.35808 -0.351,-0.45593 0.0663,-0.91711 0.25697,-0.28394 1.03962,-0.65358 1.73921,-0.82141 1.59365,-0.38231 2.31731,-1.04443 2.531,-2.31578 0.0918,-0.54627 0.43614,-2.01129 0.76514,-3.25559 0.37655,-1.42412 0.52126,-2.47033 0.39056,-2.82365 -0.1142,-0.30871 -0.75136,-0.87993 -1.4159,-1.26938 -1.30272,-0.76344 -1.70271,-1.57871 -1.21848,-2.48351 0.35428,-0.66197 0.70787,-0.6835 2.35855,-0.14359 1.7603,0.57577 2.33257,0.27392 4.31162,-2.27423 2.94516,-3.79208 3.00947,-4.00949 1.66021,-5.61299 -0.77581,-0.922 -0.82445,-1.80292 -0.13407,-2.42771 0.64129,-0.58036 1.25894,-0.39797 2.68387,0.79253 1.33787,1.11776 1.90456,1.13461 3.52825,0.1049 0.69831,-0.44286 1.78662,-1.0482 2.41845,-1.34519 0.63182,-0.297 1.4676,-0.83547 1.85728,-1.19661 0.62335,-0.57771 0.69206,-0.8025 0.57169,-1.87043 -0.14899,-1.3218 0.20833,-2.7222 0.69312,-2.71646 0.87167,0.0103 1.45975,0.39161 1.84271,1.19468 0.78783,1.65209 1.3757,1.83451 4.96641,1.54115 3.85107,-0.31464 4.2942,-0.55172 5.32208,-2.84733 0.18946,-0.42314 0.55784,-0.89939 0.81861,-1.05833 0.38608,-0.23533 0.56705,-0.16679 0.97451,0.36908 0.27521,0.36193 0.57525,1.05715 0.66676,1.54492 0.2983,1.59008 0.69261,2.13255 1.82655,2.51289 0.59682,0.20018 1.85904,0.63098 2.80492,0.95734 3.07118,1.05965 3.20706,1.04497 4.52807,-0.48897 1.22385,-1.42112 1.98129,-1.6798 2.72907,-0.93202 0.51304,0.51304 0.52139,1.61564 0.0189,2.49465 -0.20796,0.3638 -0.38234,1.04235 -0.38749,1.50789 -0.008,0.67727 0.18891,0.99232 0.98281,1.57646 0.5457,0.40152 1.66157,1.35399 2.47971,2.1166 1.7595,1.64008 2.35868,1.83858 3.90355,1.29319 0.63676,-0.2248 1.49997,-0.40873 1.91823,-0.40873 0.68682,0 0.76049,0.0862 0.76049,0.88966 0,0.59017 -0.26721,1.2259 -0.79375,1.88847 -0.96713,1.21697 -0.99344,1.93346 -0.12976,3.53288 0.3652,0.67629 0.9129,1.92323 1.21712,2.77097 0.61977,1.72708 1.61469,2.557 3.06738,2.5587 1.01811,0.001 2.19526,0.49632 2.19526,0.92338 0,0.33774 -1.10004,1.45886 -1.43142,1.45886 -0.44859,0 -1.79322,1.15443 -2.01061,1.7262 -0.12665,0.33313 -0.14056,2.04142 -0.0309,3.79622 0.22517,3.6036 0.41079,3.98466 2.34845,4.82121 0.89365,0.38583 1.12448,0.62128 1.12448,1.14703 0,0.81614 -0.67696,1.20934 -2.08205,1.20934 -1.80564,0 -2.30795,0.34235 -2.92599,1.99422 -0.3081,0.82344 -0.9742,2.27736 -1.48023,3.23093 -0.50604,0.95357 -0.92007,1.91087 -0.92007,2.12732 0,0.21646 0.48342,0.918 1.07425,1.55898 0.86678,0.94034 1.0584,1.32931 0.99219,2.01397 -0.10391,1.07444 -0.82067,1.22412 -2.23414,0.46655 -1.64406,-0.88116 -2.40482,-0.73369 -3.78756,0.73421 -0.66226,0.70305 -1.71792,1.61699 -2.3459,2.03099 -0.62799,0.414 -1.3126,1.08303 -1.52136,1.48672 -0.44767,0.86572 -0.49329,2.33786 -0.0992,3.20272 0.19289,0.42334 0.19613,0.83673 0.0104,1.32523 -0.24994,0.65738 -0.33012,0.68898 -1.08263,0.42666 -0.44699,-0.15582 -1.12958,-0.69876 -1.51688,-1.20653 -1.11687,-1.46429 -1.46247,-1.48558 -5.11686,-0.31526 -1.79472,0.57476 -3.47803,1.23951 -3.74069,1.47721 -0.26267,0.23771 -0.59613,0.88954 -0.74104,1.44851 -0.14491,0.55898 -0.38712,1.49257 -0.53825,2.07465 -0.3083,1.18745 -0.85399,1.37302 -1.36157,0.46302 z m -1.84467,-11.6637 c 0.57309,-0.61003 0.57578,-0.65405 0.22696,-3.71231 -0.22288,-1.95406 -0.49563,-3.23759 -0.73989,-3.48186 -0.21279,-0.21279 -1.09784,-0.51807 -1.96678,-0.67841 -0.86894,-0.16033 -2.27582,-0.58415 -3.1264,-0.94182 -1.41645,-0.59562 -1.59795,-0.61661 -2.15805,-0.24961 -1.05462,0.69101 -4.49752,4.9296 -4.49752,5.53694 0,1.55432 6.27021,3.95561 10.73565,4.11141 0.67758,0.0237 1.11065,-0.14219 1.52603,-0.58434 z m 5.88472,-0.46169 c 3.20447,-1.03812 8.17964,-4.25003 8.17964,-5.28068 0,-0.63539 -0.58654,-1.2702 -3.03372,-3.28343 -1.15922,-0.95366 -2.36389,-1.73393 -2.67704,-1.73393 -0.31314,0 -1.92453,0.70292 -3.58086,1.56204 l -3.01151,1.56205 0.043,3.21163 c 0.0632,4.71459 0.48725,5.12638 4.08045,3.96232 z m -16.99473,-7.2816 2.42201,-2.80439 -1.23191,-1.3628 c -0.67755,-0.74954 -1.57953,-2.1367 -2.00439,-3.08259 -1.11604,-2.48466 -1.11361,-2.48098 -1.88423,-2.85923 -0.56191,-0.2758 -1.2523,-0.28668 -3.41518,-0.0538 -3.6187,0.38962 -3.83917,0.44772 -4.03449,1.06313 -0.19492,0.6141 0.46888,3.07301 1.2472,4.62007 0.57935,1.15157 3.7859,5.71713 4.6977,6.6887 1.0387,1.10678 1.58959,0.81726 4.20329,-2.20908 z m 27.57906,-0.43676 c 2.05825,-2.82076 3.60999,-6.95222 3.85077,-10.2526 0.21914,-3.00378 0.19289,-3.02156 -3.98424,-2.69846 -2.25475,0.17441 -3.51192,0.38618 -3.75895,0.63321 -0.20414,0.20414 -0.85265,1.73459 -1.44115,3.40102 -1.71359,4.85234 -1.68843,4.72693 -1.10664,5.5156 0.55039,0.74609 5.06959,4.52571 5.41129,4.52571 0.11462,0 0.57764,-0.50601 1.02892,-1.12448 z m -14.52995,-7.9413 c 1.27496,-0.96169 2.33796,-2.79513 2.33132,-4.02101 -0.006,-1.07671 -0.96357,-2.69085 -2.17585,-3.66711 -1.27795,-1.02914 -3.3374,-1.26745 -4.83043,-0.55896 -1.50542,0.71437 -2.51437,2.47174 -2.51437,4.37951 0,1.30365 0.12003,1.6712 0.8599,2.63319 1.75748,2.28513 4.28334,2.77773 6.32943,1.23438 z m -19.03981,-2.86431 c 1.4973,-0.15863 2.98558,-0.45597 3.30728,-0.66075 0.33314,-0.21206 0.71139,-0.85667 0.87871,-1.49751 0.16159,-0.61886 0.58058,-2.04648 0.93111,-3.1725 0.73964,-2.37602 0.65612,-2.7889 -0.84848,-4.19458 -1.71426,-1.60156 -4.08851,-3.4154 -4.47062,-3.4154 -1.43408,0 -4.34466,7.53302 -4.34983,11.25802 -0.003,2.1245 0.0828,2.1562 4.55183,1.68272 z m 33.8109,-3.30974 c 1.23693,-0.0978 2.45732,-0.28488 2.71198,-0.41578 1.47842,-0.75994 -0.81687,-7.0156 -3.80371,-10.36675 -0.73251,-0.82187 -1.53159,-1.4943 -1.77573,-1.4943 -0.24413,0 -1.2764,0.977 -2.29394,2.17112 -3.24334,3.80619 -3.0684,2.93076 -1.32735,6.6425 0.83199,1.77371 1.70958,3.38207 1.95021,3.57414 0.26845,0.21428 0.79531,0.29467 1.36354,0.20804 0.50932,-0.0777 1.93807,-0.22119 3.175,-0.31897 z m -24.85265,-7.24604 c 0.93589,-0.58004 2.50127,-1.48565 3.47863,-2.01246 0.97737,-0.52682 1.83972,-1.15538 1.91635,-1.39682 0.0766,-0.24144 -0.0233,-1.84648 -0.22194,-3.56676 -0.46358,-4.01358 -0.56437,-4.13227 -2.95879,-3.48413 -3.70822,1.00377 -9.16584,4.31015 -10.12625,6.13477 -0.3351,0.63665 -0.28773,0.73196 0.92552,1.86179 1.8748,1.74589 4.30789,3.51823 4.82989,3.51823 0.25024,0 1.22071,-0.47458 2.15659,-1.05462 z m 17.21091,-2.05423 c 2.00015,-2.09145 2.87924,-3.38639 2.87924,-4.24126 0,-0.69665 -0.21434,-0.91843 -1.78594,-1.84793 -2.67406,-1.58154 -5.33069,-2.44055 -8.36221,-2.70387 -2.75637,-0.23942 -3.21916,-0.1863 -3.44229,0.39516 -0.18322,0.47747 0.30847,5.33181 0.647,6.38766 0.21352,0.66597 0.54488,0.94574 1.64449,1.38844 2.9072,1.17044 5.12202,1.83993 6.14952,1.85888 0.94066,0.0173 1.21187,-0.13046 2.27019,-1.23708 z m -195.822842,37.384 v -6.20612 l -1.918229,-0.0777 -1.918229,-0.0777 -0.07935,-1.52135 -0.07935,-1.52135 h 5.569454 5.569454 v 1.5875 1.5875 h -1.984375 -1.984375 v 6.2177 6.21771 h -1.5875 -1.5875 z m 5.799308,5.08163 c 1.999786,-4.60014 6.44232,-14.39179 6.60448,-14.55672 0.15131,-0.1539 6.04792,12.56349 7.056144,15.21818 0.156393,0.41179 -0.01619,0.46302 -1.559869,0.46302 h -1.735717 l -0.526672,-1.19062 -0.526669,-1.19063 h -2.638827 -2.638828 l -0.454704,1.19063 -0.454704,1.19062 H 30.154855 28.34812 Z m 7.580242,-5.09073 c -0.767672,-1.8373 -0.840896,-1.89693 -1.277241,-1.04004 -0.216482,0.42513 -0.476242,1.04085 -0.577244,1.36827 -0.171961,0.55745 -0.106553,0.59532 1.028364,0.59532 h 1.212006 z m 7.522533,-1.75741 v -7.97261 l 3.373438,0.12468 c 2.751002,0.10167 3.574775,0.22806 4.464634,0.68497 3.283533,1.68599 4.019947,5.99533 1.459437,8.54032 -0.529722,0.52652 -1.14095,1.01512 -1.358281,1.08578 -0.301297,0.098 -0.0028,0.72346 1.256771,2.63367 0.908555,1.37786 1.651918,2.58858 1.651918,2.6905 0,0.10192 -0.863203,0.18435 -1.918229,0.18318 l -1.918229,-0.002 -1.852084,-2.84214 -1.852083,-2.84214 -0.0751,2.84428 -0.0751,2.84427 h -1.57855 -1.578549 v -7.97262 z m 6.859963,-0.9266 c 0.742228,-0.94359 0.702326,-2.08337 -0.101062,-2.88676 -0.533371,-0.53337 -0.911638,-0.64943 -2.116667,-0.64943 h -1.467234 v 2.11666 2.11667 h 1.568297 c 1.379119,0 1.634445,-0.0841 2.116666,-0.69714 z m 9.279621,2.68151 v -6.2177 H 58.09494 56.110565 v -1.5875 -1.5875 h 5.55625 5.55625 v 1.5875 1.5875 H 65.23869 63.254315 v 6.2177 6.21771 h -1.5875 -1.5875 z m 22.754166,-1.5875 v -7.8052 h 3.614775 c 3.388526,0 3.686172,0.0418 4.755467,0.66849 2.538616,1.48772 3.407278,4.98161 1.883746,7.57671 -1.054819,1.79672 -2.251474,2.44155 -4.830029,2.60271 l -2.116667,0.13229 -0.07645,2.31511 -0.07645,2.3151 h -1.577197 -1.5772 z m 6.975777,-0.68066 c 0.955365,-0.75149 0.978749,-2.36907 0.04771,-3.30011 -0.546285,-0.54629 -0.903473,-0.64943 -2.248958,-0.64943 h -1.599526 v 2.24895 2.24896 H 87.5603 c 1.169302,0 1.723659,-0.13517 2.248958,-0.54837 z m 25.567972,0.68066 v -7.8052 h 4.7625 4.7625 v 1.5875 1.5875 h -3.1882 -3.18821 l 0.0794,1.52135 0.0794,1.52135 2.31511,0.0764 2.3151,0.0764 v 1.5772 1.5772 h -2.38125 -2.38125 v 1.4552 1.45521 h 3.175 3.175 v 1.5875 1.5875 h -4.7625 -4.7625 z m 28.83958,1.5875 v -6.2177 h -1.98437 -1.98438 v -1.5875 -1.5875 h 5.55625 5.55625 v 1.5875 1.5875 h -1.98437 -1.98438 v 6.2177 6.21771 h -1.5875 -1.5875 z m 8.46667,-1.5875 v -7.8052 h 4.7625 4.7625 v 1.5875 1.5875 h -3.1882 -3.18821 l 0.0794,1.52135 0.0794,1.52135 2.328,0.0766 2.32799,0.0766 -0.079,1.51087 -0.079,1.51086 -2.3151,0.0764 -2.31511,0.0765 v 1.4449 1.44491 h 3.175 3.175 v 1.5875 1.5875 h -4.7625 -4.7625 z m 10.91013,-0.0661 0.0701,-7.87136 2.50008,-0.0768 c 4.21414,-0.1294 6.13471,0.56051 7.54905,2.7118 0.63187,0.9611 0.69437,1.27175 0.61855,3.07412 -0.0726,1.72517 -0.1897,2.14311 -0.83922,2.99466 -0.41518,0.54432 -1.04026,1.11971 -1.38906,1.27864 -0.34881,0.15892 -0.63419,0.39428 -0.63419,0.52302 0,0.12873 0.57691,1.09188 1.28202,2.14034 2.23043,3.31648 2.23664,3.0969 -0.0875,3.0969 h -1.99912 l -1.84205,-2.84427 -1.84205,-2.84427 -0.005,2.84427 -0.005,2.84427 h -1.72373 -1.72373 z m 6.73376,-0.90602 c 0.8078,-0.75889 0.82542,-2.20652 0.0371,-3.04568 -0.46168,-0.49143 -0.85358,-0.61236 -1.98438,-0.61236 H 166.971 v 2.11666 2.11667 h 1.37201 c 1.04453,0 1.51818,-0.13731 1.98438,-0.57529 z M 11.232975,196.42462 c -1.3695678,-0.62194 -2.4878021,-2.06591 -2.6738045,-3.45266 l -0.1432808,-1.06824 h 1.6223373 c 1.182603,0 1.622338,0.0965 1.622338,0.35587 0,0.56473 0.903392,1.23163 1.66838,1.23163 0.458431,0 0.852965,-0.23243 1.141177,-0.6723 0.619077,-0.94483 0.172747,-1.82459 -1.138232,-2.24357 -1.831975,-0.58549 -3.4908605,-1.63893 -4.2060759,-2.67099 -0.6159082,-0.88875 -0.690367,-1.21413 -0.5912876,-2.58389 0.086896,-1.20133 0.2879456,-1.796 0.8613768,-2.54781 0.8526057,-1.11782 2.5010897,-1.9671 3.8347717,-1.97563 2.136843,-0.0137 4.341441,1.89277 4.692833,4.05814 l 0.156294,0.96313 -1.555973,-0.002 c -1.450615,-0.002 -1.586492,-0.0553 -2.006688,-0.79375 -0.596883,-1.04896 -1.843057,-1.10888 -2.491133,-0.11979 -0.582028,0.88829 -0.168602,1.84012 1.018864,2.34572 0.475558,0.20249 1.376531,0.5795 2.002163,0.8378 1.265258,0.52238 2.60194,1.88327 2.860109,2.9119 0.496365,1.97767 -0.703879,4.44906 -2.60849,5.37107 -1.421159,0.68797 -2.635718,0.70441 -4.065679,0.055 z m 25.032128,0.27472 c -1.868699,-0.6128 -3.213572,-1.7422 -4.135271,-3.4727 -0.427525,-0.80269 -0.504544,-1.67499 -0.578194,-6.54844 l -0.08497,-5.6224 h 1.586463 1.586463 l 0.08601,5.31249 0.08601,5.31249 0.988301,0.90522 c 0.826503,0.75702 1.188194,0.90522 2.209271,0.90522 1.035775,0 1.357416,-0.13645 2.120553,-0.89958 l 0.899584,-0.89959 v -5.31812 -5.31813 h 1.719791 1.719792 v 4.74948 c 0,2.61221 -0.127635,5.34462 -0.283633,6.07202 -0.589233,2.74748 -2.918939,4.75377 -5.735535,4.9393 -0.8368,0.0551 -1.819883,0.002 -2.184627,-0.11726 z m 41.21726,-4.11527 -4.570757,-4.34673 -0.0727,4.21444 -0.0727,4.21444 H 71.18526 69.604314 v -7.96977 c 0,-7.83626 0.0086,-7.96369 0.513349,-7.60677 0.282343,0.19965 2.425468,2.19249 4.7625,4.42854 l 4.249151,4.06555 v -4.26398 -4.26399 h 1.5875 1.5875 v 7.9375 c 0,4.36563 -0.05652,7.9375 -0.125598,7.9375 -0.06908,0 -2.18244,-1.95602 -4.696353,-4.34673 z m -54.444715,-2.13556 v -6.21771 h -1.984375 -1.984375 v -1.5875 -1.5875 h 5.55625 5.55625 v 1.5875 1.5875 h -1.984375 -1.984375 v 6.21771 6.21771 h -1.5875 -1.5875 z m 22.754167,-1.5875 v -7.80521 h 2.7682 c 3.316026,0 5.121526,0.56036 6.680618,2.0734 1.844548,1.79008 2.709709,4.64448 2.216457,7.31273 -0.496673,2.68675 -1.746184,4.34763 -4.113273,5.46747 -1.463837,0.69252 -1.850277,0.75642 -4.57544,0.75661 l -2.976562,2.1e-4 z m 6.551797,3.9232 c 1.438037,-1.07365 1.782578,-1.83193 1.782578,-3.9232 0,-1.55236 -0.110252,-2.09324 -0.545516,-2.67623 -0.885732,-1.18634 -1.757153,-1.68935 -3.228549,-1.86362 l -1.38531,-0.16406 v 4.70072 4.70073 l 1.342625,-0.12902 c 0.739558,-0.0711 1.653249,-0.36092 2.034172,-0.64532 z m 6.412786,-3.9232 v -7.80521 h 4.7625 4.7625 v 1.5875 1.5875 H 65.093195 61.90499 l 0.07935,1.52136 0.07935,1.52135 2.315104,0.0765 2.315104,0.0764 v 1.57719 1.5772 h -2.38125 -2.38125 v 1.45521 1.45521 h 3.175 3.175 v 1.5875 1.5875 h -4.7625 -4.7625 z m 28.839583,1.5875 v -6.21771 h -1.984375 -1.984375 v -1.5875 -1.5875 h 5.55625 5.55625 v 1.5875 1.5875 h -1.984375 -1.984375 v 6.21771 6.21771 h -1.5875 -1.5875 z m 72.354359,-8.8407 c -0.79038,-0.33507 -1.04578,-0.75016 -1.71372,-2.78518 -0.69458,-2.11618 -1.35461,-2.88914 -2.84945,-3.337 -2.24885,-0.67377 -4.19273,0.47672 -5.93357,3.51178 -0.86815,1.51359 -1.62595,1.78552 -3.04451,1.09252 l -1.00165,-0.48934 -0.0757,-2.90593 c -0.0707,-2.71441 -0.12085,-2.95304 -0.76043,-3.62061 -0.37659,-0.39308 -1.33588,-0.97897 -2.13176,-1.302 l -1.44704,-0.58731 -1.09982,0.56218 c -0.6049,0.3092 -1.7746,1.05305 -2.59935,1.653 -1.65581,1.2045 -2.04257,1.21286 -3.39668,0.0735 -0.98393,-0.82792 -0.98812,-1.2775 -0.0312,-3.34267 0.41861,-0.90344 0.84233,-1.90728 0.94159,-2.23076 0.38498,-1.2546 -1.45314,-3.92308 -3.14557,-4.56653 -0.33315,-0.12667 -1.3206,-0.01 -2.52845,0.29915 -2.74034,0.70103 -3.66204,0.58815 -4.4207,-0.54141 -0.90457,-1.34679 -0.7743,-1.81638 0.95693,-3.4495 0.85842,-0.80978 1.69185,-1.73238 1.85208,-2.05023 0.8762,-1.73816 -0.42442,-4.92765 -2.23323,-5.47654 -0.2971,-0.0901 -1.42794,-0.27539 -2.51298,-0.41163 -2.28047,-0.28635 -3.16455,-0.98432 -3.16455,-2.49838 0,-1.08271 0.69483,-1.73642 2.67916,-2.52062 0.81869,-0.32355 1.83072,-0.9461 2.24896,-1.38346 0.70046,-0.73247 0.75918,-0.94847 0.74461,-2.73911 -0.0179,-2.1949 -0.1921,-2.51413 -1.79606,-3.29059 -0.60918,-0.2949 -1.6711,-0.89354 -2.35984,-1.33033 -1.19158,-0.75567 -1.25224,-0.85211 -1.25224,-1.9906 0,-1.83351 0.57337,-2.25478 3.06887,-2.25478 2.70667,0 3.6076,-0.44787 4.44576,-2.21005 1.21204,-2.54827 1.18617,-2.72582 -0.73343,-5.03476 -1.9358,-2.32841 -2.20329,-3.00784 -1.6247,-4.12672 0.75799,-1.46579 1.86386,-1.60932 4.00172,-0.51938 2.02437,1.03209 4.01738,0.51992 5.39908,-1.38745 0.98919,-1.36554 1.01884,-2.50187 0.12707,-4.87106 -0.84302,-2.23971 -0.83097,-2.62386 0.11194,-3.56677 1.14998,-1.14998 1.84237,-1.01392 4.14274,0.8141 1.6144,1.28291 2.18228,1.5875 2.95969,1.5875 1.03657,0 3.60441,-1.37117 3.93463,-2.10101 0.10266,-0.22689 0.31504,-1.71747 0.47195,-3.3124 l 0.2853,-2.89988 0.98076,-0.37282 c 1.64776,-0.62638 2.15517,-0.30867 3.52738,2.20868 0.67462,1.23761 1.44649,2.36788 1.71527,2.51173 0.89809,0.48065 3.42285,0.31152 4.40427,-0.29504 0.89286,-0.55181 1.82732,-2.07244 2.44304,-3.97549 0.45725,-1.41327 1.1334,-1.92217 2.30195,-1.73254 1.54449,0.25063 1.8447,0.71353 2.22302,3.42756 0.18707,1.34209 0.44395,2.64435 0.57083,2.8939 0.12688,0.24955 1.01729,0.69668 1.97868,0.99363 2.24565,0.69361 3.3235,0.44551 4.7588,-1.09535 2.56057,-2.7489 2.45203,-2.66523 3.21464,-2.47777 1.03048,0.25331 1.90697,0.8766 2.14766,1.52725 0.12689,0.34301 0.0185,1.28175 -0.27882,2.41408 -0.58795,2.23949 -0.6137,3.30895 -0.0974,4.04607 0.58234,0.83141 2.86692,2.20815 3.66423,2.20815 0.3848,0 1.73399,-0.47787 2.9982,-1.06194 1.34064,-0.61938 2.5005,-0.99785 2.78311,-0.90815 0.63751,0.20233 1.8074,1.75183 1.80595,2.39194 -5.3e-4,0.27731 -0.46698,1.11862 -1.03636,1.86959 -0.56937,0.75097 -1.16417,1.60634 -1.32177,1.90084 -0.52949,0.98935 -0.33376,2.50886 0.4906,3.80875 1.20017,1.89247 1.59321,2.05407 4.31024,1.7722 1.37913,-0.14306 2.56317,-0.14303 2.93959,8e-5 0.59701,0.22698 1.49801,1.9001 1.49801,2.78173 0,0.20543 -0.99872,1.09448 -2.21937,1.97569 -1.22066,0.8812 -2.29222,1.79202 -2.38125,2.02403 -0.32849,0.85603 -0.15092,2.92097 0.32868,3.82229 0.58532,1.09999 2.05018,1.99298 3.90641,2.38139 1.84751,0.38659 2.24734,0.74111 2.40407,2.1316 0.18813,1.66908 -0.334,2.15275 -3.09152,2.86382 -1.27448,0.32864 -2.50324,0.82245 -2.84468,1.14321 -0.97172,0.91289 -1.47317,3.56834 -0.88232,4.67236 0.13591,0.25395 1.14794,1.20687 2.24896,2.1176 2.17225,1.79682 2.3298,2.17425 1.61837,3.87692 l -0.38347,0.91779 -3.16748,-0.0664 -3.16749,-0.0664 -0.80759,0.77033 c -0.44418,0.42368 -1.00201,1.35567 -1.23963,2.07108 -0.39737,1.19637 -0.39799,1.38934 -0.008,2.40467 0.23337,0.60716 0.78128,1.6397 1.21759,2.29455 0.4363,0.65484 0.79378,1.5272 0.7944,1.93858 10e-4,0.84301 -1.26317,2.29475 -1.9987,2.29475 -0.24917,0 -1.50068,-0.55979 -2.78112,-1.24398 l -2.32808,-1.24398 -1.36117,0.63753 c -1.74276,0.81627 -2.9063,2.11585 -2.90863,3.2487 -0.001,0.46788 0.14116,1.7895 0.31583,2.93693 l 0.31758,2.08625 -0.72526,0.62384 c -0.88321,0.75971 -1.95881,1.06097 -2.52704,0.7078 -0.23214,-0.14429 -0.94718,-0.94978 -1.58899,-1.78999 -1.80315,-2.36055 -3.53822,-2.77676 -6.10877,-1.46536 -1.12866,0.5758 -1.63402,1.61941 -2.11045,4.35819 -0.15115,0.86894 -0.42442,1.72948 -0.60726,1.91232 -0.44759,0.44759 -1.78786,0.6483 -2.4512,0.36709 z m 1.72897,-13.1095 c 10.8269,-1.65206 19.24568,-9.68681 21.49229,-20.51189 0.72696,-3.50275 0.54515,-8.38178 -0.43884,-11.77749 -2.63553,-9.095 -9.53166,-15.75986 -18.93678,-18.30169 -2.65564,-0.71771 -9.21272,-0.65503 -12.05627,0.11526 -9.76937,2.6464 -16.6872,9.64658 -19.08707,19.31426 -0.31669,1.27577 -0.44075,2.91095 -0.43637,5.75133 0.005,3.43141 0.0998,4.31868 0.69765,6.55325 2.30492,8.61444 8.83008,15.37966 17.39044,18.03022 3.96414,1.22743 7.20526,1.463 11.37495,0.82675 z m -76.199995,-6.1502 c -0.678813,-0.24814 -1.605349,-1.20816 -2.667987,-2.76441 -1.925312,-2.81964 -3.970891,-3.9279 -7.249962,-3.9279 -1.866704,0 -3.65165,0.75986 -5.163301,2.19803 -2.652538,2.52359 -4.35827,3.88739 -4.862026,3.88735 -0.826884,-5e-5 -4.616495,-2.51888 -4.975656,-3.30716 -0.354849,-0.77881 0.0136,-2.19601 1.531292,-5.89017 0.493932,-1.20225 0.898056,-2.42121 0.898056,-2.70879 0,-0.28759 -0.589317,-1.56612 -1.309595,-2.84118 -0.720277,-1.27505 -1.484182,-2.63793 -1.697569,-3.02861 -0.250253,-0.45818 -0.748062,-0.80903 -1.402384,-0.9884 -4.914726,-1.34725 -6.92263,-2.01763 -7.430556,-2.48083 -0.543076,-0.49526 -0.595312,-0.78004 -0.595312,-3.24559 0,-3.65344 0.04581,-3.70314 3.869623,-4.19788 4.800016,-0.62105 6.124329,-1.42028 7.756375,-4.681 1.257191,-2.51179 1.367639,-3.80035 0.53232,-6.21028 -0.77366,-2.23204 -0.969235,-4.67603 -0.438952,-5.48534 0.485357,-0.74075 5.199261,-3.26083 5.444874,-2.91086 0.621916,0.88616 5.378133,6.70253 5.58582,6.83088 0.141806,0.0876 1.690862,0.21419 3.442351,0.28122 2.366335,0.0906 3.404401,0.0269 4.040328,-0.24776 0.470691,-0.2033 2.063498,-1.50176 3.539569,-2.88547 1.476073,-1.38371 2.925717,-2.59263 3.221432,-2.68649 0.700267,-0.22225 3.645529,1.11701 4.611989,2.09716 1.031634,1.04625 0.958712,2.2618 -0.326991,5.45074 -1.60556,3.98226 -1.609175,4.90175 -0.02905,7.38585 0.138848,0.21828 0.504846,0.95256 0.813331,1.63173 0.706602,1.55568 1.371275,1.98748 3.772493,2.45078 2.722949,0.52537 5.711113,1.68816 6.084263,2.36757 0.30307,0.55182 0.33446,4.8201 0.0426,5.78718 -0.2146,0.71099 -0.78666,0.90546 -4.074342,1.38505 -5.482941,0.79984 -6.890628,1.89621 -8.327773,6.48602 -0.449511,1.43561 -0.446519,1.48908 0.222043,3.96875 0.372732,1.38245 0.752089,3.10886 0.843018,3.83646 0.240081,1.92112 -0.48982,2.88729 -2.922158,3.86801 -1.92387,0.77571 -2.119286,0.81618 -2.778125,0.57534 z m -5.678461,-17.10779 c 0.734856,-0.34219 1.813091,-1.16614 2.402914,-1.83621 3.345246,-3.8004 2.145347,-9.64014 -2.426603,-11.80994 -1.814009,-0.86091 -4.518406,-0.8779 -6.258179,-0.0393 -1.403395,0.67645 -3.251832,2.54311 -3.772955,3.81015 -1.670542,4.0617 0.382005,8.63573 4.540877,10.11917 1.617988,0.57712 3.974735,0.47289 5.513946,-0.24386 z m 32.029996,-19.62703 c -0.22505,-0.22505 -0.58154,-0.9896 -0.79221,-1.699 -0.71733,-2.4155 -0.92401,-2.57894 -4.0331,-3.18921 -2.54159,-0.49888 -3.55187,0.0117 -5.46514,2.76197 -0.74975,1.07774 -1.36596,0.94343 -5.7162,-1.24589 -1.044241,-0.52553 -1.241123,-1.07041 -0.877713,-2.42915 0.579853,-2.16801 0.435811,-3.25966 -0.554304,-4.20089 -3.170206,-3.01372 -3.470659,-3.12606 -5.832973,-2.18098 -0.943216,0.37734 -1.899237,0.68608 -2.124488,0.68608 -0.459991,0 -2.16998,-2.2005 -3.049121,-3.92376 -0.704718,-1.38136 -0.594752,-1.79809 0.926472,-3.5109 0.710573,-0.80007 1.182288,-1.59546 1.205704,-2.03303 0.11561,-2.1605 -0.379214,-3.89548 -1.440153,-5.04954 -0.715915,-0.778754 -2.458758,-1.608723 -3.39456,-1.616544 -0.382362,-0.0032 -0.813183,-0.154638 -0.957379,-0.336539 -0.144192,-0.181901 -0.326998,-1.5669 -0.40623,-3.077774 -0.136097,-2.595165 -0.111125,-2.779982 0.451625,-3.342732 0.382532,-0.382532 1.082574,-0.662652 1.956345,-0.782826 1.771129,-0.243594 2.537359,-0.881332 3.205967,-2.668346 1.018304,-2.721663 0.642863,-4.642146 -1.195874,-6.117233 -0.643404,-0.516157 -0.970183,-0.997565 -0.970183,-1.429267 0,-0.731887 2.783634,-5.212417 3.380674,-5.441523 0.212148,-0.08141 1.286828,0.180633 2.388174,0.582317 1.890813,0.689618 2.050146,0.707589 2.857995,0.322352 0.470548,-0.22439 1.549694,-1.042395 2.398099,-1.817789 l 1.542555,-1.409808 -0.202239,-1.729259 C 95.021362,69.782927 94.91723,68.538895 94.901188,67.969503 l -0.02917,-1.035258 2.645833,-1.164806 c 1.455209,-0.640643 2.781729,-1.224347 2.947809,-1.297119 0.16609,-0.07277 0.87631,0.6196 1.57828,1.538605 0.70196,0.919006 1.45904,1.815961 1.6824,1.993234 1.00797,0.800007 5.2162,0.101016 6.29219,-1.045139 0.70262,-0.748437 1.64099,-2.784083 1.64872,-3.576655 0.007,-0.729551 0.37578,-0.748696 3.60918,-0.187432 2.91697,0.50634 3.24727,0.80046 3.53881,3.151259 0.26626,2.147037 0.77888,2.801016 3.04428,3.883774 2.37911,1.137103 3.60513,0.978648 5.47105,-0.707102 0.55702,-0.503238 1.16789,-0.914978 1.35748,-0.914978 0.59831,0 4.78608,3.436438 5.06108,4.153065 0.0783,0.204086 -0.27287,1.195633 -0.78038,2.203437 -0.50752,1.007804 -0.92278,2.089886 -0.92278,2.404627 0,0.727859 2.32169,4.682127 2.94486,5.015635 0.26638,0.142563 1.43101,0.177272 2.69306,0.08026 1.39157,-0.106965 2.28516,-0.0715 2.38794,0.09478 0.0903,0.14614 0.56827,1.598466 1.06211,3.227391 l 0.89791,2.96168 -0.56117,0.348792 c -4.0796,2.535666 -4.01924,2.455127 -3.97753,5.307203 0.0366,2.502051 0.4277,3.303556 2.10823,4.320474 2.24426,1.35803 2.39009,1.71049 1.71935,4.15538 -0.30548,1.11347 -0.74282,2.38688 -0.97187,2.82983 l -0.41645,0.80533 -1.86432,-0.1563 c -2.38978,-0.20035 -3.30586,0.17216 -4.3961,1.78758 -1.91927,2.84382 -2.06406,3.85191 -0.83226,5.79426 1.1449,1.80531 1.05617,2.27837 -0.7276,3.87889 -2.73267,2.45192 -3.24843,2.53442 -5.62492,0.89967 -1.62534,-1.11803 -2.02172,-1.1603 -3.92638,-0.41867 -2.66079,1.03605 -3.59955,2.06907 -3.88317,4.27306 -0.34537,2.6839 -0.14942,2.52118 -3.6973,3.07021 -2.9329,0.45386 -2.66177,0.45655 -3.14951,-0.0312 z m 2.85952,-15.98849 c 2.95378,-0.75545 5.01284,-1.94788 7.31669,-4.2372 5.91416,-5.876849 6.27334,-14.463671 0.88188,-21.082946 -1.36554,-1.676525 -4.22565,-3.694107 -6.58567,-4.645675 -2.00912,-0.810084 -2.29143,-0.853297 -5.55625,-0.850474 -3.096,0.0027 -3.61656,0.07308 -5.21136,0.704827 -4.66065,1.84621 -8.28058,5.51455 -9.831673,9.963157 -0.651592,1.868792 -0.872885,5.839367 -0.448599,8.049038 0.173379,0.902954 0.787922,2.626873 1.36565,3.830933 3.170621,6.60797 10.839842,10.11733 18.069332,8.26834 z m -5.00168,-1.2558 c -7.09797,-0.63748 -12.307549,-5.96547 -12.748432,-13.038197 -0.593704,-9.524336 7.957192,-16.624255 17.354012,-14.409266 6.27366,1.478807 10.42318,6.835999 10.44369,13.483224 0.0238,7.711549 -5.27351,13.366439 -13.0649,13.946839 -0.65484,0.0488 -1.54781,0.0566 -1.98437,0.0174 z m 4.23333,-2.7648 c 5.50024,-1.39137 9.31503,-7.267125 8.3428,-12.850045 -1.08033,-6.203738 -7.26511,-10.905686 -13.01316,-9.893188 -6.30985,1.111459 -10.865142,7.030614 -10.003831,12.999002 0.599533,4.154421 2.797861,7.214581 6.472111,9.009431 2.55272,1.24698 5.22942,1.48678 8.20208,0.7348 z"
         style="fill:#000000;stroke-width:0.26458332" />
    </g>
  </g>
</svg>
